<mxfile host="app.diagrams.net" modified="2021-06-04T05:25:10.506Z" agent="5.0 (Windows NT 10.0; Win64; x64) AppleWebKit/537.36 (KHTML, like Gecko) Chrome/88.0.4324.182 Safari/537.36" etag="MY6Rxm5YhbjCRlXa2xA6" version="14.7.5" type="github">
  <diagram id="3tnFTNC6vz-NsnKPc6Su" name="Page-1">
    <mxGraphModel dx="2408" dy="1490" grid="1" gridSize="10" guides="1" tooltips="1" connect="1" arrows="1" fold="1" page="1" pageScale="1" pageWidth="3300" pageHeight="4681" math="0" shadow="0">
      <root>
        <mxCell id="0" />
        <mxCell id="1" parent="0" />
        <mxCell id="5tckST0uW5krr8QFOaF3-3" value="" style="edgeStyle=orthogonalEdgeStyle;rounded=0;orthogonalLoop=1;jettySize=auto;html=1;" edge="1" parent="1" source="5tckST0uW5krr8QFOaF3-1" target="5tckST0uW5krr8QFOaF3-2">
          <mxGeometry relative="1" as="geometry" />
        </mxCell>
        <mxCell id="5tckST0uW5krr8QFOaF3-1" value="searchcar_menu(user_data, data_carlist, space_cars)" style="ellipse;whiteSpace=wrap;html=1;" vertex="1" parent="1">
          <mxGeometry x="810.5" y="250" width="190" height="120" as="geometry" />
        </mxCell>
        <mxCell id="5tckST0uW5krr8QFOaF3-5" value="" style="edgeStyle=orthogonalEdgeStyle;rounded=0;orthogonalLoop=1;jettySize=auto;html=1;" edge="1" parent="1" source="5tckST0uW5krr8QFOaF3-2" target="5tckST0uW5krr8QFOaF3-4">
          <mxGeometry relative="1" as="geometry" />
        </mxCell>
        <mxCell id="5tckST0uW5krr8QFOaF3-2" value="menu = [&quot;Car ID&quot;, &quot;Car Types&quot;, &quot;Car Brand&quot;, &quot;Car Model&quot;, &quot;Passenger Capacity&quot;,&quot;Weight Load&quot;,&quot;Return&quot;]" style="rounded=1;whiteSpace=wrap;html=1;" vertex="1" parent="1">
          <mxGeometry x="790.5" y="430" width="230" height="60" as="geometry" />
        </mxCell>
        <mxCell id="5tckST0uW5krr8QFOaF3-7" value="" style="edgeStyle=orthogonalEdgeStyle;rounded=0;orthogonalLoop=1;jettySize=auto;html=1;" edge="1" parent="1" source="5tckST0uW5krr8QFOaF3-4" target="5tckST0uW5krr8QFOaF3-6">
          <mxGeometry relative="1" as="geometry" />
        </mxCell>
        <mxCell id="5tckST0uW5krr8QFOaF3-4" value="title = user_data[2] + &quot;, you can search a car here&quot;" style="rounded=1;whiteSpace=wrap;html=1;" vertex="1" parent="1">
          <mxGeometry x="790.5" y="570" width="230" height="40" as="geometry" />
        </mxCell>
        <mxCell id="5tckST0uW5krr8QFOaF3-9" value="" style="edgeStyle=orthogonalEdgeStyle;rounded=0;orthogonalLoop=1;jettySize=auto;html=1;" edge="1" parent="1" source="5tckST0uW5krr8QFOaF3-6" target="5tckST0uW5krr8QFOaF3-8">
          <mxGeometry relative="1" as="geometry" />
        </mxCell>
        <mxCell id="5tckST0uW5krr8QFOaF3-6" value="sequence = []" style="rounded=1;whiteSpace=wrap;html=1;" vertex="1" parent="1">
          <mxGeometry x="790.5" y="690" width="230" height="40" as="geometry" />
        </mxCell>
        <mxCell id="5tckST0uW5krr8QFOaF3-11" value="" style="edgeStyle=orthogonalEdgeStyle;rounded=0;orthogonalLoop=1;jettySize=auto;html=1;" edge="1" parent="1" source="5tckST0uW5krr8QFOaF3-8" target="5tckST0uW5krr8QFOaF3-10">
          <mxGeometry relative="1" as="geometry" />
        </mxCell>
        <mxCell id="5tckST0uW5krr8QFOaF3-8" value="default.print_title(title)" style="rounded=1;whiteSpace=wrap;html=1;" vertex="1" parent="1">
          <mxGeometry x="790.5" y="810" width="230" height="40" as="geometry" />
        </mxCell>
        <mxCell id="5tckST0uW5krr8QFOaF3-13" value="" style="edgeStyle=orthogonalEdgeStyle;rounded=0;orthogonalLoop=1;jettySize=auto;html=1;" edge="1" parent="1" source="5tckST0uW5krr8QFOaF3-10" target="5tckST0uW5krr8QFOaF3-12">
          <mxGeometry relative="1" as="geometry" />
        </mxCell>
        <mxCell id="5tckST0uW5krr8QFOaF3-10" value="default.general_menu(menu)" style="rounded=1;whiteSpace=wrap;html=1;" vertex="1" parent="1">
          <mxGeometry x="790.5" y="930" width="230" height="40" as="geometry" />
        </mxCell>
        <mxCell id="5tckST0uW5krr8QFOaF3-15" value="" style="edgeStyle=orthogonalEdgeStyle;rounded=0;orthogonalLoop=1;jettySize=auto;html=1;" edge="1" parent="1" source="5tckST0uW5krr8QFOaF3-12" target="5tckST0uW5krr8QFOaF3-14">
          <mxGeometry relative="1" as="geometry" />
        </mxCell>
        <mxCell id="5tckST0uW5krr8QFOaF3-12" value="PRINT(&quot;Please Select: &quot;)" style="rounded=1;whiteSpace=wrap;html=1;" vertex="1" parent="1">
          <mxGeometry x="790.5" y="1050" width="230" height="40" as="geometry" />
        </mxCell>
        <mxCell id="5tckST0uW5krr8QFOaF3-17" value="" style="edgeStyle=orthogonalEdgeStyle;rounded=0;orthogonalLoop=1;jettySize=auto;html=1;" edge="1" parent="1" source="5tckST0uW5krr8QFOaF3-14" target="5tckST0uW5krr8QFOaF3-16">
          <mxGeometry relative="1" as="geometry" />
        </mxCell>
        <mxCell id="5tckST0uW5krr8QFOaF3-14" value="READ choice" style="shape=parallelogram;perimeter=parallelogramPerimeter;whiteSpace=wrap;html=1;fixedSize=1;" vertex="1" parent="1">
          <mxGeometry x="790.5" y="1160" width="229" height="50" as="geometry" />
        </mxCell>
        <mxCell id="5tckST0uW5krr8QFOaF3-38" style="edgeStyle=orthogonalEdgeStyle;rounded=0;orthogonalLoop=1;jettySize=auto;html=1;entryX=0.5;entryY=0;entryDx=0;entryDy=0;" edge="1" parent="1" source="5tckST0uW5krr8QFOaF3-16" target="5tckST0uW5krr8QFOaF3-26">
          <mxGeometry relative="1" as="geometry" />
        </mxCell>
        <mxCell id="5tckST0uW5krr8QFOaF3-70" style="edgeStyle=orthogonalEdgeStyle;rounded=0;orthogonalLoop=1;jettySize=auto;html=1;entryX=1;entryY=0.5;entryDx=0;entryDy=0;" edge="1" parent="1" source="5tckST0uW5krr8QFOaF3-16" target="5tckST0uW5krr8QFOaF3-8">
          <mxGeometry relative="1" as="geometry">
            <Array as="points">
              <mxPoint x="1360" y="1320" />
              <mxPoint x="1360" y="830" />
            </Array>
          </mxGeometry>
        </mxCell>
        <mxCell id="5tckST0uW5krr8QFOaF3-16" value="choice == &#39;1&#39; or choice ==&#39;2&#39; or choice == &#39;3&#39; or choice == &#39;4&#39; or choice == &#39;5&#39; or choice == &#39;6&#39; or choice == &#39;7&#39;" style="rhombus;whiteSpace=wrap;html=1;" vertex="1" parent="1">
          <mxGeometry x="555" y="1270" width="700" height="100" as="geometry" />
        </mxCell>
        <mxCell id="5tckST0uW5krr8QFOaF3-21" value="" style="edgeStyle=orthogonalEdgeStyle;rounded=0;orthogonalLoop=1;jettySize=auto;html=1;" edge="1" parent="1" source="5tckST0uW5krr8QFOaF3-18" target="5tckST0uW5krr8QFOaF3-20">
          <mxGeometry relative="1" as="geometry" />
        </mxCell>
        <mxCell id="5tckST0uW5krr8QFOaF3-54" value="" style="edgeStyle=orthogonalEdgeStyle;rounded=0;orthogonalLoop=1;jettySize=auto;html=1;" edge="1" parent="1" source="5tckST0uW5krr8QFOaF3-18" target="5tckST0uW5krr8QFOaF3-34">
          <mxGeometry relative="1" as="geometry" />
        </mxCell>
        <mxCell id="5tckST0uW5krr8QFOaF3-18" value="choice == &#39;1&#39;" style="rhombus;whiteSpace=wrap;html=1;" vertex="1" parent="1">
          <mxGeometry x="850" y="1410" width="110" height="100" as="geometry" />
        </mxCell>
        <mxCell id="5tckST0uW5krr8QFOaF3-40" value="" style="edgeStyle=orthogonalEdgeStyle;rounded=0;orthogonalLoop=1;jettySize=auto;html=1;" edge="1" parent="1" source="5tckST0uW5krr8QFOaF3-19" target="5tckST0uW5krr8QFOaF3-39">
          <mxGeometry relative="1" as="geometry" />
        </mxCell>
        <mxCell id="5tckST0uW5krr8QFOaF3-19" value="header = &quot;Car ID&quot;" style="rounded=1;whiteSpace=wrap;html=1;" vertex="1" parent="1">
          <mxGeometry x="40" y="1550" width="230" height="40" as="geometry" />
        </mxCell>
        <mxCell id="5tckST0uW5krr8QFOaF3-23" value="" style="edgeStyle=orthogonalEdgeStyle;rounded=0;orthogonalLoop=1;jettySize=auto;html=1;" edge="1" parent="1" source="5tckST0uW5krr8QFOaF3-20" target="5tckST0uW5krr8QFOaF3-22">
          <mxGeometry relative="1" as="geometry" />
        </mxCell>
        <mxCell id="5tckST0uW5krr8QFOaF3-55" value="" style="edgeStyle=orthogonalEdgeStyle;rounded=0;orthogonalLoop=1;jettySize=auto;html=1;" edge="1" parent="1" source="5tckST0uW5krr8QFOaF3-20" target="5tckST0uW5krr8QFOaF3-35">
          <mxGeometry relative="1" as="geometry" />
        </mxCell>
        <mxCell id="5tckST0uW5krr8QFOaF3-20" value="choice == &#39;1&#39;" style="rhombus;whiteSpace=wrap;html=1;" vertex="1" parent="1">
          <mxGeometry x="1100" y="1410" width="110" height="100" as="geometry" />
        </mxCell>
        <mxCell id="5tckST0uW5krr8QFOaF3-25" value="" style="edgeStyle=orthogonalEdgeStyle;rounded=0;orthogonalLoop=1;jettySize=auto;html=1;" edge="1" parent="1" source="5tckST0uW5krr8QFOaF3-22" target="5tckST0uW5krr8QFOaF3-24">
          <mxGeometry relative="1" as="geometry" />
        </mxCell>
        <mxCell id="5tckST0uW5krr8QFOaF3-56" value="" style="edgeStyle=orthogonalEdgeStyle;rounded=0;orthogonalLoop=1;jettySize=auto;html=1;" edge="1" parent="1" source="5tckST0uW5krr8QFOaF3-22" target="5tckST0uW5krr8QFOaF3-36">
          <mxGeometry relative="1" as="geometry" />
        </mxCell>
        <mxCell id="5tckST0uW5krr8QFOaF3-22" value="choice == &#39;1&#39;" style="rhombus;whiteSpace=wrap;html=1;" vertex="1" parent="1">
          <mxGeometry x="1350" y="1410" width="110" height="100" as="geometry" />
        </mxCell>
        <mxCell id="5tckST0uW5krr8QFOaF3-57" value="" style="edgeStyle=orthogonalEdgeStyle;rounded=0;orthogonalLoop=1;jettySize=auto;html=1;" edge="1" parent="1" source="5tckST0uW5krr8QFOaF3-24" target="5tckST0uW5krr8QFOaF3-37">
          <mxGeometry relative="1" as="geometry" />
        </mxCell>
        <mxCell id="5tckST0uW5krr8QFOaF3-24" value="choice == &#39;1&#39;" style="rhombus;whiteSpace=wrap;html=1;" vertex="1" parent="1">
          <mxGeometry x="1580" y="1410" width="110" height="100" as="geometry" />
        </mxCell>
        <mxCell id="5tckST0uW5krr8QFOaF3-28" value="" style="edgeStyle=orthogonalEdgeStyle;rounded=0;orthogonalLoop=1;jettySize=auto;html=1;" edge="1" parent="1" source="5tckST0uW5krr8QFOaF3-26" target="5tckST0uW5krr8QFOaF3-27">
          <mxGeometry relative="1" as="geometry" />
        </mxCell>
        <mxCell id="5tckST0uW5krr8QFOaF3-51" value="" style="edgeStyle=orthogonalEdgeStyle;rounded=0;orthogonalLoop=1;jettySize=auto;html=1;" edge="1" parent="1" source="5tckST0uW5krr8QFOaF3-26" target="5tckST0uW5krr8QFOaF3-19">
          <mxGeometry relative="1" as="geometry" />
        </mxCell>
        <mxCell id="5tckST0uW5krr8QFOaF3-26" value="choice == &#39;1&#39;" style="rhombus;whiteSpace=wrap;html=1;" vertex="1" parent="1">
          <mxGeometry x="100" y="1410" width="110" height="100" as="geometry" />
        </mxCell>
        <mxCell id="5tckST0uW5krr8QFOaF3-30" value="" style="edgeStyle=orthogonalEdgeStyle;rounded=0;orthogonalLoop=1;jettySize=auto;html=1;" edge="1" parent="1" source="5tckST0uW5krr8QFOaF3-27" target="5tckST0uW5krr8QFOaF3-29">
          <mxGeometry relative="1" as="geometry" />
        </mxCell>
        <mxCell id="5tckST0uW5krr8QFOaF3-52" value="" style="edgeStyle=orthogonalEdgeStyle;rounded=0;orthogonalLoop=1;jettySize=auto;html=1;" edge="1" parent="1" source="5tckST0uW5krr8QFOaF3-27" target="5tckST0uW5krr8QFOaF3-32">
          <mxGeometry relative="1" as="geometry" />
        </mxCell>
        <mxCell id="5tckST0uW5krr8QFOaF3-27" value="choice == &#39;1&#39;" style="rhombus;whiteSpace=wrap;html=1;" vertex="1" parent="1">
          <mxGeometry x="350" y="1410" width="110" height="100" as="geometry" />
        </mxCell>
        <mxCell id="5tckST0uW5krr8QFOaF3-31" value="" style="edgeStyle=orthogonalEdgeStyle;rounded=0;orthogonalLoop=1;jettySize=auto;html=1;" edge="1" parent="1" source="5tckST0uW5krr8QFOaF3-29" target="5tckST0uW5krr8QFOaF3-18">
          <mxGeometry relative="1" as="geometry" />
        </mxCell>
        <mxCell id="5tckST0uW5krr8QFOaF3-53" value="" style="edgeStyle=orthogonalEdgeStyle;rounded=0;orthogonalLoop=1;jettySize=auto;html=1;" edge="1" parent="1" source="5tckST0uW5krr8QFOaF3-29" target="5tckST0uW5krr8QFOaF3-33">
          <mxGeometry relative="1" as="geometry" />
        </mxCell>
        <mxCell id="5tckST0uW5krr8QFOaF3-29" value="choice == &#39;1&#39;" style="rhombus;whiteSpace=wrap;html=1;" vertex="1" parent="1">
          <mxGeometry x="600" y="1410" width="110" height="100" as="geometry" />
        </mxCell>
        <mxCell id="5tckST0uW5krr8QFOaF3-42" value="" style="edgeStyle=orthogonalEdgeStyle;rounded=0;orthogonalLoop=1;jettySize=auto;html=1;" edge="1" parent="1" source="5tckST0uW5krr8QFOaF3-32" target="5tckST0uW5krr8QFOaF3-41">
          <mxGeometry relative="1" as="geometry" />
        </mxCell>
        <mxCell id="5tckST0uW5krr8QFOaF3-32" value="header = &quot;Car Types&quot;" style="rounded=1;whiteSpace=wrap;html=1;" vertex="1" parent="1">
          <mxGeometry x="290" y="1550" width="230" height="40" as="geometry" />
        </mxCell>
        <mxCell id="5tckST0uW5krr8QFOaF3-44" value="" style="edgeStyle=orthogonalEdgeStyle;rounded=0;orthogonalLoop=1;jettySize=auto;html=1;" edge="1" parent="1" source="5tckST0uW5krr8QFOaF3-33" target="5tckST0uW5krr8QFOaF3-43">
          <mxGeometry relative="1" as="geometry" />
        </mxCell>
        <mxCell id="5tckST0uW5krr8QFOaF3-33" value="header = &quot;Car Brand&quot;" style="rounded=1;whiteSpace=wrap;html=1;" vertex="1" parent="1">
          <mxGeometry x="540" y="1550" width="230" height="40" as="geometry" />
        </mxCell>
        <mxCell id="5tckST0uW5krr8QFOaF3-46" value="" style="edgeStyle=orthogonalEdgeStyle;rounded=0;orthogonalLoop=1;jettySize=auto;html=1;" edge="1" parent="1" source="5tckST0uW5krr8QFOaF3-34" target="5tckST0uW5krr8QFOaF3-45">
          <mxGeometry relative="1" as="geometry" />
        </mxCell>
        <mxCell id="5tckST0uW5krr8QFOaF3-34" value="header = &quot;Car Model&quot;" style="rounded=1;whiteSpace=wrap;html=1;" vertex="1" parent="1">
          <mxGeometry x="790" y="1550" width="230" height="40" as="geometry" />
        </mxCell>
        <mxCell id="5tckST0uW5krr8QFOaF3-48" value="" style="edgeStyle=orthogonalEdgeStyle;rounded=0;orthogonalLoop=1;jettySize=auto;html=1;" edge="1" parent="1" source="5tckST0uW5krr8QFOaF3-35" target="5tckST0uW5krr8QFOaF3-47">
          <mxGeometry relative="1" as="geometry" />
        </mxCell>
        <mxCell id="5tckST0uW5krr8QFOaF3-35" value="header = &quot;Passenger Capacity&quot;" style="rounded=1;whiteSpace=wrap;html=1;" vertex="1" parent="1">
          <mxGeometry x="1040" y="1550" width="230" height="40" as="geometry" />
        </mxCell>
        <mxCell id="5tckST0uW5krr8QFOaF3-50" value="" style="edgeStyle=orthogonalEdgeStyle;rounded=0;orthogonalLoop=1;jettySize=auto;html=1;" edge="1" parent="1" source="5tckST0uW5krr8QFOaF3-36" target="5tckST0uW5krr8QFOaF3-49">
          <mxGeometry relative="1" as="geometry" />
        </mxCell>
        <mxCell id="5tckST0uW5krr8QFOaF3-36" value="header = &quot;Weight Load&quot;" style="rounded=1;whiteSpace=wrap;html=1;" vertex="1" parent="1">
          <mxGeometry x="1290" y="1550" width="230" height="40" as="geometry" />
        </mxCell>
        <mxCell id="5tckST0uW5krr8QFOaF3-37" value="Return" style="ellipse;whiteSpace=wrap;html=1;" vertex="1" parent="1">
          <mxGeometry x="1590" y="1550" width="90" height="60" as="geometry" />
        </mxCell>
        <mxCell id="5tckST0uW5krr8QFOaF3-67" style="edgeStyle=orthogonalEdgeStyle;rounded=0;orthogonalLoop=1;jettySize=auto;html=1;" edge="1" parent="1" source="5tckST0uW5krr8QFOaF3-39">
          <mxGeometry relative="1" as="geometry">
            <mxPoint x="410" y="1870" as="targetPoint" />
            <Array as="points">
              <mxPoint x="155" y="1870" />
              <mxPoint x="410" y="1870" />
            </Array>
          </mxGeometry>
        </mxCell>
        <mxCell id="5tckST0uW5krr8QFOaF3-39" value="sequence = sub_search_menu(header, data_carlist, 2)" style="rounded=1;whiteSpace=wrap;html=1;" vertex="1" parent="1">
          <mxGeometry x="40" y="1670" width="230" height="40" as="geometry" />
        </mxCell>
        <mxCell id="5tckST0uW5krr8QFOaF3-66" style="edgeStyle=orthogonalEdgeStyle;rounded=0;orthogonalLoop=1;jettySize=auto;html=1;" edge="1" parent="1" source="5tckST0uW5krr8QFOaF3-41">
          <mxGeometry relative="1" as="geometry">
            <mxPoint x="660" y="1870" as="targetPoint" />
            <Array as="points">
              <mxPoint x="405" y="1870" />
            </Array>
          </mxGeometry>
        </mxCell>
        <mxCell id="5tckST0uW5krr8QFOaF3-41" value="sequence = sub_search_menu(header, data_carlist, 2)" style="rounded=1;whiteSpace=wrap;html=1;" vertex="1" parent="1">
          <mxGeometry x="290" y="1670" width="230" height="40" as="geometry" />
        </mxCell>
        <mxCell id="5tckST0uW5krr8QFOaF3-65" style="edgeStyle=orthogonalEdgeStyle;rounded=0;orthogonalLoop=1;jettySize=auto;html=1;entryX=0;entryY=0.5;entryDx=0;entryDy=0;" edge="1" parent="1" source="5tckST0uW5krr8QFOaF3-43" target="5tckST0uW5krr8QFOaF3-58">
          <mxGeometry relative="1" as="geometry">
            <Array as="points">
              <mxPoint x="655" y="1870" />
            </Array>
          </mxGeometry>
        </mxCell>
        <mxCell id="5tckST0uW5krr8QFOaF3-43" value="sequence = sub_search_menu(header, data_carlist, 2)" style="rounded=1;whiteSpace=wrap;html=1;" vertex="1" parent="1">
          <mxGeometry x="540" y="1670" width="230" height="40" as="geometry" />
        </mxCell>
        <mxCell id="5tckST0uW5krr8QFOaF3-60" value="" style="edgeStyle=orthogonalEdgeStyle;rounded=0;orthogonalLoop=1;jettySize=auto;html=1;" edge="1" parent="1" source="5tckST0uW5krr8QFOaF3-45" target="5tckST0uW5krr8QFOaF3-58">
          <mxGeometry relative="1" as="geometry" />
        </mxCell>
        <mxCell id="5tckST0uW5krr8QFOaF3-45" value="sequence = sub_search_menu(header, data_carlist, 2)" style="rounded=1;whiteSpace=wrap;html=1;" vertex="1" parent="1">
          <mxGeometry x="790" y="1670" width="230" height="40" as="geometry" />
        </mxCell>
        <mxCell id="5tckST0uW5krr8QFOaF3-68" style="edgeStyle=orthogonalEdgeStyle;rounded=0;orthogonalLoop=1;jettySize=auto;html=1;entryX=1;entryY=0.5;entryDx=0;entryDy=0;" edge="1" parent="1" source="5tckST0uW5krr8QFOaF3-47" target="5tckST0uW5krr8QFOaF3-58">
          <mxGeometry relative="1" as="geometry">
            <Array as="points">
              <mxPoint x="1155" y="1870" />
            </Array>
          </mxGeometry>
        </mxCell>
        <mxCell id="5tckST0uW5krr8QFOaF3-47" value="sequence = sub_search_menu(header, data_carlist, 2)" style="rounded=1;whiteSpace=wrap;html=1;" vertex="1" parent="1">
          <mxGeometry x="1040" y="1670" width="230" height="40" as="geometry" />
        </mxCell>
        <mxCell id="5tckST0uW5krr8QFOaF3-69" style="edgeStyle=orthogonalEdgeStyle;rounded=0;orthogonalLoop=1;jettySize=auto;html=1;" edge="1" parent="1" source="5tckST0uW5krr8QFOaF3-49">
          <mxGeometry relative="1" as="geometry">
            <mxPoint x="1150" y="1870" as="targetPoint" />
            <Array as="points">
              <mxPoint x="1405" y="1870" />
            </Array>
          </mxGeometry>
        </mxCell>
        <mxCell id="5tckST0uW5krr8QFOaF3-49" value="sequence = sub_search_menu(header, data_carlist, 2)" style="rounded=1;whiteSpace=wrap;html=1;" vertex="1" parent="1">
          <mxGeometry x="1290" y="1670" width="230" height="40" as="geometry" />
        </mxCell>
        <mxCell id="5tckST0uW5krr8QFOaF3-61" value="" style="edgeStyle=orthogonalEdgeStyle;rounded=0;orthogonalLoop=1;jettySize=auto;html=1;" edge="1" parent="1" source="5tckST0uW5krr8QFOaF3-58" target="5tckST0uW5krr8QFOaF3-59">
          <mxGeometry relative="1" as="geometry" />
        </mxCell>
        <mxCell id="5tckST0uW5krr8QFOaF3-58" value="default.print_sorttable(data_carlist, 4, sequence, space_cars)" style="rounded=1;whiteSpace=wrap;html=1;" vertex="1" parent="1">
          <mxGeometry x="789.5" y="1850" width="230" height="40" as="geometry" />
        </mxCell>
        <mxCell id="5tckST0uW5krr8QFOaF3-71" style="edgeStyle=orthogonalEdgeStyle;rounded=0;orthogonalLoop=1;jettySize=auto;html=1;entryX=1;entryY=0.5;entryDx=0;entryDy=0;" edge="1" parent="1" source="5tckST0uW5krr8QFOaF3-59" target="5tckST0uW5krr8QFOaF3-2">
          <mxGeometry relative="1" as="geometry">
            <Array as="points">
              <mxPoint x="1720" y="1990" />
              <mxPoint x="1720" y="460" />
            </Array>
          </mxGeometry>
        </mxCell>
        <mxCell id="5tckST0uW5krr8QFOaF3-59" value="PRINT(&quot;&quot;)" style="rounded=1;whiteSpace=wrap;html=1;" vertex="1" parent="1">
          <mxGeometry x="790.5" y="1970" width="230" height="40" as="geometry" />
        </mxCell>
        <mxCell id="5tckST0uW5krr8QFOaF3-72" value="True" style="text;html=1;align=center;verticalAlign=middle;resizable=0;points=[];autosize=1;strokeColor=none;" vertex="1" parent="1">
          <mxGeometry x="515" y="1290" width="40" height="20" as="geometry" />
        </mxCell>
        <mxCell id="5tckST0uW5krr8QFOaF3-73" value="True" style="text;html=1;align=center;verticalAlign=middle;resizable=0;points=[];autosize=1;strokeColor=none;" vertex="1" parent="1">
          <mxGeometry x="170" y="1510" width="40" height="20" as="geometry" />
        </mxCell>
        <mxCell id="5tckST0uW5krr8QFOaF3-74" value="True" style="text;html=1;align=center;verticalAlign=middle;resizable=0;points=[];autosize=1;strokeColor=none;" vertex="1" parent="1">
          <mxGeometry x="410" y="1510" width="40" height="20" as="geometry" />
        </mxCell>
        <mxCell id="5tckST0uW5krr8QFOaF3-75" value="True" style="text;html=1;align=center;verticalAlign=middle;resizable=0;points=[];autosize=1;strokeColor=none;" vertex="1" parent="1">
          <mxGeometry x="660" y="1510" width="40" height="20" as="geometry" />
        </mxCell>
        <mxCell id="5tckST0uW5krr8QFOaF3-76" value="True" style="text;html=1;align=center;verticalAlign=middle;resizable=0;points=[];autosize=1;strokeColor=none;" vertex="1" parent="1">
          <mxGeometry x="910" y="1510" width="40" height="20" as="geometry" />
        </mxCell>
        <mxCell id="5tckST0uW5krr8QFOaF3-77" value="True" style="text;html=1;align=center;verticalAlign=middle;resizable=0;points=[];autosize=1;strokeColor=none;" vertex="1" parent="1">
          <mxGeometry x="1160" y="1510" width="40" height="20" as="geometry" />
        </mxCell>
        <mxCell id="5tckST0uW5krr8QFOaF3-78" value="True" style="text;html=1;align=center;verticalAlign=middle;resizable=0;points=[];autosize=1;strokeColor=none;" vertex="1" parent="1">
          <mxGeometry x="1410" y="1510" width="40" height="20" as="geometry" />
        </mxCell>
        <mxCell id="5tckST0uW5krr8QFOaF3-79" value="True" style="text;html=1;align=center;verticalAlign=middle;resizable=0;points=[];autosize=1;strokeColor=none;" vertex="1" parent="1">
          <mxGeometry x="1640" y="1510" width="40" height="20" as="geometry" />
        </mxCell>
        <mxCell id="5tckST0uW5krr8QFOaF3-80" value="False" style="text;html=1;align=center;verticalAlign=middle;resizable=0;points=[];autosize=1;strokeColor=none;" vertex="1" parent="1">
          <mxGeometry x="1260" y="1300" width="40" height="20" as="geometry" />
        </mxCell>
        <mxCell id="5tckST0uW5krr8QFOaF3-81" value="False" style="text;html=1;align=center;verticalAlign=middle;resizable=0;points=[];autosize=1;strokeColor=none;" vertex="1" parent="1">
          <mxGeometry x="210" y="1440" width="40" height="20" as="geometry" />
        </mxCell>
        <mxCell id="5tckST0uW5krr8QFOaF3-82" value="False" style="text;html=1;align=center;verticalAlign=middle;resizable=0;points=[];autosize=1;strokeColor=none;" vertex="1" parent="1">
          <mxGeometry x="460" y="1440" width="40" height="20" as="geometry" />
        </mxCell>
        <mxCell id="5tckST0uW5krr8QFOaF3-83" value="False" style="text;html=1;align=center;verticalAlign=middle;resizable=0;points=[];autosize=1;strokeColor=none;" vertex="1" parent="1">
          <mxGeometry x="710" y="1440" width="40" height="20" as="geometry" />
        </mxCell>
        <mxCell id="5tckST0uW5krr8QFOaF3-84" value="False" style="text;html=1;align=center;verticalAlign=middle;resizable=0;points=[];autosize=1;strokeColor=none;" vertex="1" parent="1">
          <mxGeometry x="960" y="1440" width="40" height="20" as="geometry" />
        </mxCell>
        <mxCell id="5tckST0uW5krr8QFOaF3-85" value="False" style="text;html=1;align=center;verticalAlign=middle;resizable=0;points=[];autosize=1;strokeColor=none;" vertex="1" parent="1">
          <mxGeometry x="1210" y="1440" width="40" height="20" as="geometry" />
        </mxCell>
        <mxCell id="5tckST0uW5krr8QFOaF3-86" value="False" style="text;html=1;align=center;verticalAlign=middle;resizable=0;points=[];autosize=1;strokeColor=none;" vertex="1" parent="1">
          <mxGeometry x="1460" y="1440" width="40" height="20" as="geometry" />
        </mxCell>
      </root>
    </mxGraphModel>
  </diagram>
</mxfile>
